<svg xmlns="http://www.w3.org/2000/svg" width="720" height="720" viewBox="0 0 720 720">
  <g id="hjouwzkysw" fill="none">
    <path d="M100,0H720V720H80A80,80,0,0,1,0,640L50,50A50,50,0,0,1,100,0Z" stroke="none"/>
    <path d="M 100 1 C 93.3846435546875 1 86.9676513671875 2.29547119140625 80.92724609375 4.85028076171875 C 75.092529296875 7.31817626953125 69.8521728515625 10.85137939453125 65.35174560546875 15.35174560546875 C 60.85137939453125 19.8521728515625 57.31817626953125 25.092529296875 54.85028076171875 30.92724609375 C 52.29547119140625 36.9676513671875 51 43.3846435546875 51 50 L 51 50.04229736328125 L 50.9964599609375 50.08447265625 L 1 640.0424194335938 C 1.00286865234375 645.3890380859375 1.54278564453125 650.7313842773438 2.60498046875 655.92236328125 C 3.642822265625 660.9940795898438 5.19146728515625 665.98291015625 7.20782470703125 670.7501220703125 C 9.1876220703125 675.430908203125 11.63818359375 679.9457397460938 14.49139404296875 684.1690063476562 C 17.317626953125 688.3523559570312 20.5633544921875 692.2862548828125 24.1385498046875 695.8614501953125 C 27.7137451171875 699.4366455078125 31.64764404296875 702.682373046875 35.83099365234375 705.5086669921875 C 40.05426025390625 708.36181640625 44.569091796875 710.8123779296875 49.24993896484375 712.7921752929688 C 54.01708984375 714.8085327148438 59.00592041015625 716.357177734375 64.07763671875 717.39501953125 C 69.28228759765625 718.4600219726562 74.6392822265625 719 80 719 L 719 719 L 719 1 L 100 1 M 100 0 L 720 0 L 720 720 L 80 720 C 35.81719970703125 720 0 684.1828002929688 0 640 L 50 50 C 50 22.3857421875 72.3857421875 0 100 0 Z" stroke="none" fill="rgba(17,17,17,0.8)"/>
  </g>
</svg>
