<svg xmlns="http://www.w3.org/2000/svg" width="720" height="841" viewBox="0 0 720 841">
  <g id="ikpqrjonhs" fill="none">
    <path d="M720,841H0V90A40,40,0,0,1,40,50L640,0a80,80,0,0,1,80,80Z" stroke="none"/>
    <path d="M 719 840 L 719 80 C 719 74.63933563232422 718.4600219726562 69.28221893310547 717.39501953125 64.07766723632812 C 716.3571166992188 59.00588989257812 714.8085327148438 54.01711273193359 712.792236328125 49.2498893737793 C 710.8123168945312 44.56911087036133 708.3617553710938 40.0543327331543 705.5086669921875 35.83100128173828 C 702.6823120117188 31.64766693115234 699.4365844726562 27.71377754211426 695.8614501953125 24.1385555267334 C 692.2861938476562 20.56344413757324 688.3523559570312 17.31766700744629 684.1690063476562 14.4913330078125 C 679.9456787109375 11.63822269439697 675.430908203125 9.187666893005371 670.7501220703125 7.207777976989746 C 665.98291015625 5.191444396972656 660.994140625 3.642888784408569 655.92236328125 2.605000019073486 C 650.7311401367188 1.542730093002319 645.3883666992188 1.002777695655823 640.0414428710938 1.000016331672668 L 40.08300018310547 50.99655532836914 L 40.04155731201172 51 L 40 51 C 34.73455429077148 51 29.62722206115723 52.03099822998047 24.81977844238281 54.06444549560547 C 20.17577743530273 56.02866744995117 16.0048885345459 58.84088897705078 12.42288875579834 62.42288970947266 C 8.840888977050781 66.00489044189453 6.028666496276855 70.17578125 4.064444541931152 74.81977844238281 C 2.030999898910522 79.62722015380859 1 84.73455810546875 1 90 L 1 840 L 719 840 M 720 841 L 0 841 L 0 90 C 0 67.90866851806641 17.90866661071777 50 40 50 L 640 0 C 684.1828002929688 0 720 35.81722259521484 720 80 L 720 841 Z" stroke="none" fill="rgba(255,255,255,0.8)"/>
  </g>
</svg>
